REM DIRINDEX 1\2,1\3,1\4,1\5,1\6
REM DIRNAME cjc030,folder01,folder02,folder03,folder04,folder05
TITLE ""
FILE "Disc3Track09.mp3" MP3
  TRACK 01 AUDIO
    TITLE "3:cjc030_04290"
    INDEX 01 00:00:00
  TRACK 02 AUDIO
    TITLE "0:"
    INDEX 01 00:01:17
  TRACK 03 AUDIO
    TITLE "4:cjc030_04291"
    INDEX 01 00:01:26
  TRACK 04 AUDIO
    TITLE "0:"
    INDEX 01 00:03:68
  TRACK 05 AUDIO
    TITLE "5:cjc030_04292"
    INDEX 01 00:04:03
  TRACK 06 AUDIO
    TITLE "0:"
    INDEX 01 00:05:24
  TRACK 07 AUDIO
    TITLE "6:cjc030_04293"
    INDEX 01 00:05:38
  TRACK 08 AUDIO
    TITLE "0:"
    INDEX 01 00:09:02
  TRACK 09 AUDIO
    TITLE "3:cjc030_04294"
    INDEX 01 00:09:45
  TRACK 10 AUDIO
    TITLE "0:"
    INDEX 01 00:11:05
  TRACK 11 AUDIO
    TITLE "4:cjc030_04295"
    INDEX 01 00:11:13
  TRACK 12 AUDIO
    TITLE "0:"
    INDEX 01 00:13:63
  TRACK 13 AUDIO
    TITLE "5:cjc030_04296"
    INDEX 01 00:13:71
  TRACK 14 AUDIO
    TITLE "0:"
    INDEX 01 00:15:30
  TRACK 15 AUDIO
    TITLE "6:cjc030_04297"
    INDEX 01 00:15:44
  TRACK 16 AUDIO
    TITLE "0:"
    INDEX 01 00:20:49
  TRACK 17 AUDIO
    TITLE "3:cjc030_04298"
    INDEX 01 00:21:23
  TRACK 18 AUDIO
    TITLE "0:"
    INDEX 01 00:22:48
  TRACK 19 AUDIO
    TITLE "4:cjc030_04299"
    INDEX 01 00:22:56
  TRACK 20 AUDIO
    TITLE "0:"
    INDEX 01 00:23:55
  TRACK 21 AUDIO
    TITLE "5:cjc030_04300"
    INDEX 01 00:23:63
  TRACK 22 AUDIO
    TITLE "0:"
    INDEX 01 00:25:15
  TRACK 23 AUDIO
    TITLE "6:cjc030_04301"
    INDEX 01 00:25:23
  TRACK 24 AUDIO
    TITLE "0:"
    INDEX 01 00:29:21
  TRACK 25 AUDIO
    TITLE "3:cjc030_04302"
    INDEX 01 00:29:66
  TRACK 26 AUDIO
    TITLE "0:"
    INDEX 01 00:31:18
  TRACK 27 AUDIO
    TITLE "4:cjc030_04303"
    INDEX 01 00:31:29
  TRACK 28 AUDIO
    TITLE "0:"
    INDEX 01 00:33:68
  TRACK 29 AUDIO
    TITLE "5:cjc030_04304"
    INDEX 01 00:34:00
  TRACK 30 AUDIO
    TITLE "0:"
    INDEX 01 00:35:29
  TRACK 31 AUDIO
    TITLE "6:cjc030_04305"
    INDEX 01 00:35:41
  TRACK 32 AUDIO
    TITLE "0:"
    INDEX 01 00:38:57
  TRACK 33 AUDIO
    TITLE "3:cjc030_04306"
    INDEX 01 00:39:31
  TRACK 34 AUDIO
    TITLE "0:"
    INDEX 01 00:40:54
  TRACK 35 AUDIO
    TITLE "4:cjc030_04307"
    INDEX 01 00:40:62
  TRACK 36 AUDIO
    TITLE "0:"
    INDEX 01 00:42:55
  TRACK 37 AUDIO
    TITLE "5:cjc030_04308"
    INDEX 01 00:42:63
  TRACK 38 AUDIO
    TITLE "0:"
    INDEX 01 00:44:12
  TRACK 39 AUDIO
    TITLE "6:cjc030_04309"
    INDEX 01 00:44:26
  TRACK 40 AUDIO
    TITLE "0:"
    INDEX 01 00:48:36
  TRACK 41 AUDIO
    TITLE "3:cjc030_04310"
    INDEX 01 00:49:12
  TRACK 42 AUDIO
    TITLE "0:"
    INDEX 01 00:50:41
  TRACK 43 AUDIO
    TITLE "4:cjc030_04311"
    INDEX 01 00:50:50
  TRACK 44 AUDIO
    TITLE "0:"
    INDEX 01 00:51:50
  TRACK 45 AUDIO
    TITLE "5:cjc030_04312"
    INDEX 01 00:51:58
  TRACK 46 AUDIO
    TITLE "0:"
    INDEX 01 00:53:13
  TRACK 47 AUDIO
    TITLE "6:cjc030_04313"
    INDEX 01 00:53:25
  TRACK 48 AUDIO
    TITLE "0:"
    INDEX 01 00:57:31
  TRACK 49 AUDIO
    TITLE "3:cjc030_04314"
    INDEX 01 00:58:05
  TRACK 50 AUDIO
    TITLE "0:"
    INDEX 01 00:59:26
  TRACK 51 AUDIO
    TITLE "4:cjc030_04315"
    INDEX 01 00:59:34
  TRACK 52 AUDIO
    TITLE "0:"
    INDEX 01 01:01:50
  TRACK 53 AUDIO
    TITLE "5:cjc030_04316"
    INDEX 01 01:01:60
  TRACK 54 AUDIO
    TITLE "0:"
    INDEX 01 01:03:06
  TRACK 55 AUDIO
    TITLE "6:cjc030_04317"
    INDEX 01 01:03:18
  TRACK 56 AUDIO
    TITLE "0:"
    INDEX 01 01:06:55
  TRACK 57 AUDIO
    TITLE "3:cjc030_04318"
    INDEX 01 01:07:29
  TRACK 58 AUDIO
    TITLE "0:"
    INDEX 01 01:08:58
  TRACK 59 AUDIO
    TITLE "4:cjc030_04319"
    INDEX 01 01:08:66
  TRACK 60 AUDIO
    TITLE "0:"
    INDEX 01 01:11:07
  TRACK 61 AUDIO
    TITLE "5:cjc030_04320"
    INDEX 01 01:11:19
  TRACK 62 AUDIO
    TITLE "0:"
    INDEX 01 01:12:46
  TRACK 63 AUDIO
    TITLE "6:cjc030_04321"
    INDEX 01 01:12:58
  TRACK 64 AUDIO
    TITLE "0:"
    INDEX 01 01:14:39
